# xmcd
#
# Track frame offsets:
#	150
#	16185
#	28107
#	45875
#	63535
#	72852
#	107090
#	123982
#	147765
#	164640
#	191945
#	203372
#	248805
#	277090
#	296675
#
# Disc length: 4082 seconds
#
# Revision: 0
# Processed by: cddbd v1.5.2PL0 Copyright (c) Steve Scherf et al.
# Submitted via: EZCDAudioConverter 2.1.7.1
#
DISCID=dd0ff00f
DTITLE=Strauss Johann  - Wiener Blut - Grosser Querschnitt
DYEAR=1987
DGENRE=Operette
TTITLE0=Strauss J. Jr. - Einleitung/Introduction and Anna! - Ich such´ jetzt dor
TTITLE0=t
TTITLE1=Pepi! Er?
TTITLE2=Grüß Gott, mein liebes Kind!
TTITLE3=Na, also schreib und tu nicht schmieren!
TTITLE4=Wünsch´ gut´n Morgen, Herr von Pepi
TTITLE5=Da ist sie ja!
TTITLE6=Es hat dem Grafen nicht genützt
TTITLE7=Das eine kann ich nicht verzeihn - Wiener Blut
TTITLE8=Als ich ward ihr Mann
TTITLE9=So nimm, mein süßer Schatz
TTITLE10=Bei dem Wiener Kongreß
TTITLE11=Ah, jetzt heißt es operieren
TTITLE12=So kommen Sie und zögern Sie nicht länger
TTITLE13=So wollen wir uns denn verbrüdern
TTITLE14=Ein Lied! Ein Tanz! - Die Wienerstadt, sie hat ein Symbol
EXTD=
EXTT0=
EXTT1=
EXTT2=
EXTT3=
EXTT4=
EXTT5=
EXTT6=
EXTT7=
EXTT8=
EXTT9=
EXTT10=
EXTT11=
EXTT12=
EXTT13=
EXTT14=
PLAYORDER=
